<svg fill="#000" version="1.1" xmlns="http://www.w3.org/2000/svg" viewBox="0 0 203.1 203.1" xml:space="preserve"><title>Finger</title><path d="M192.2 104v-2a22.5 22.5 0 0 0-30.4-21 22.5 22.5 0 0 0-30.4-16.4A23.3 23.3 0 0 0 109.2 48a22 22 0 0 0-8 1.5v-27a22.5 22.5 0 0 0-45 0v66.3c-4-5-8.6-9.5-14.1-11.7a23 23 0 0 0-29 31.4l28 56.6c.8 1.5 19.7 38 54 38h40a57.4 57.4 0 0 0 57.2-57.5V104zm-57.1 84H95c-24.7 0-40.1-28.7-40.7-29.7l-27.8-56.4c-2-4-.4-8.6 3.6-10.6 2.2-1 4-1.2 6.2-.3 8.2 3.4 16.4 19.7 19.5 29.2l2.4 7.3 13-4.6V22.5a7.5 7.5 0 0 1 15 0V109h15V71c0-4.2 3.8-8 8-8s8 3.5 8 7.5v41h15v-26a7.5 7.5 0 0 1 15 0v33h15V102a7.5 7.5 0 0 1 15 0V145.6c0 23.4-19 42.5-42.2 42.5z"/></svg>
