<?xml version="1.0" encoding="UTF-8" standalone="no"?>
<!--
SPDX-License-Identifier: CC-BY-SA-4.0

Original: https://github.com/bytedance/IconPark/blob/8dc132da4c85671ba6a5962c87aa2bdafbf158e9/source/Hands/index-finger.svg
by Bytedance, licensed Apache-2.0
-->
<svg
   width="24"
   height="24"
   viewBox="0 0 48 48"
   version="1.1"
   xmlns="http://www.w3.org/2000/svg"
   xmlns:svg="http://www.w3.org/2000/svg">
  <title>Finger</title>
  <path
     d="M 12.5658,26.1824 C 10.8553,27.3542 10,29.2935 10,32.0002 c 0,4.0601 4.9753,11 9.4618,11 4.4865,0 7.0884,0 11.4797,0 4.3913,0 7.0585,-3.8506 7.0585,-6.9399 0,-4.3504 0,-8.7007 0,-13.051 0,-1.6569 -1.3431,-3 -3,-3 H 34.9909 C 33.3391,20.0093 32,21.3484 32,23.0002"
     stroke="currentColor"
     stroke-width="4"
     stroke-linecap="round"
     style="fill:none" />
  <path
     d="M 13.981,28.4452 V 8.00587 c 0,-1.65551 1.342,-2.99757 2.9975,-2.99757 0.0028,0 0.0056,0 0.0083,10e-6 1.6614,0.0046 3.0059,1.35275 3.0059,3.01419 V 23.592"
     stroke="currentColor"
     stroke-width="4"
     stroke-linecap="round"
     style="fill:none" />
  <path
     d="m 19.9927,23.0083 v -3.9928 c 0,-1.6654 1.3501,-3.0155 3.0155,-3.0155 1.6654,0 3.0154,1.3501 3.0154,3.0155 v 3.9928"
     stroke="currentColor"
     stroke-width="4"
     stroke-linecap="round"
     stroke-linejoin="round"
     style="fill:none" />
  <path
     d="m 26,22.7158 v -2.7124 c 0,-1.6568 1.3431,-3 3,-3 1.6569,0 3,1.3432 3,3 v 3"
     stroke="currentColor"
     stroke-width="4"
     stroke-linecap="round"
     stroke-linejoin="round"
     style="fill:none" />
</svg>
