<svg xmlns="http://www.w3.org/2000/svg" xmlns:xlink="http://www.w3.org/1999/xlink" xml:space="preserve" viewBox="0 0 487 183.7"><title>IndieWeb</title><path d="m163.8 34 59.1 126.1 18.6-39.8L201.3 34zm169.1 0h-118l38.8 83.2 20.1 42.9z" class="st0"/><defs><path id="iwc-a" d="M33 34h117.8v33H33z"/></defs><use xlink:href="#a" fill="#231f20" overflow="visible"/><clipPath id="iwc-b"><use xlink:href="#iwc-a" overflow="visible"/></clipPath><path d="M31.4 32.4h120.9v36.1H31.4z" clip-path="url(#iwc-b)"/><defs><path id="iwc-c" d="M33 79h117.8v71.8H33z"/></defs><use xlink:href="#iwc-c" fill="#231f20" overflow="visible"/><clipPath id="iwd-d"><use xlink:href="#c" overflow="visible"/></clipPath><path d="M31.4 77.4h120.9v74.9H31.4z" clip-path="url(#iwc-d)"/><path d="M453.1 98.9c-3.1 32.4-30.3 57.8-63.5 57.8-35.2 0-63.8-28.6-63.8-63.8 0-35.3 28.6-63.8 63.8-63.8 33.1 0 60.3 25.2 63.5 57.5h-63.5c-3.4 0-6.2 2.8-6.2 6.2 0 3.4 2.8 6.2 6.2 6.2h63.5z" class="st0"/><path fill="none" d="M0 0h487v183.7H0z"/></svg>
