<svg xmlns="http://www.w3.org/2000/svg" stroke-linejoin="round" stroke-miterlimit="2" viewBox="0 0 1024 1024"><title>Keyoxide</title><defs><mask id="keyoxide-mask" display="inline"><path fill="#fff" d="M0 0h1024v1024H0z"/><path fill="#000" d="M596.31 175.945c-27.523 0-49.832 22.31-49.832 49.832 0 16.633 8.255 31.822 21.452 40.968 3.802 2.632 5.988 2.937 6.493 7.056.508 4.117-5.136 7.935-5.136 7.935L309.02 484.168a96.088 96.088 0 0 0-37.087 75.83v192c0 53.06 43.01 96.07 96.068 96.07 53.056 0 96.07-43.01 96.07-96.07V606.983L714.98 411.837c36.833-28.647 47.4-79.172 26.456-119.788-1.564-3.032-2.061-4.109-5.318-5.373-3.255-1.265-5.874.15-9.131 1.373a40.058 40.058 0 0 1-14.079 2.553c-22.132 0-40.076-17.941-40.076-40.075.003-3.004.534-4.765-.355-6.634-.889-1.869-3.251-3.077-5.577-3.342a96.026 96.026 0 0 0-11.634-.618c-3.815.03-6.715-.313-8.36-3.104-1.644-2.791-.763-5.99-.763-11.052 0-27.522-22.312-49.833-49.834-49.832z"/><path fill="#000" d="m464 508.622 245.251 163.501c44.085 29.39 56.016 89.043 26.626 133.128-29.39 44.085-89.043 56.016-133.128 26.626l-288-192A96 96 0 0 1 272 560V336c0-52.984 43.016-96 96-96s96 43.016 96 96z"/><circle fill="#000" cx="503.532" cy="185.784" r="33.993"/><circle fill="#000" cx="535.989" cy="119.866" r="22.178"/><circle fill="#000" cx="475.598" cy="103.58" r="15.485"/><circle fill="#000" cx="712.91" cy="250.527" r="27.168"/></mask></defs><g mask="url(#keyoxide-mask)"><rect width="1024" height="1024" ry="512"/></g></svg>
