<?xml version="1.0" encoding="UTF-8" standalone="no"?>
<!--
SPDX-License-Identifier: CC-BY-SA-4.0

Original: https://codeberg.org/keyoxide/keyoxide-artwork/src/commit/accccbd5ff03ca0ad87f0a8589038bdde617a902/keyoxide.svg
by Yarmo Mackenbach, licensed CC-BY-SA-4.0
-->
<svg
   width="1024"
   height="1024"
   viewBox="0 0 1024 1024"
   version="1.1"
   xml:space="preserve"
   style="clip-rule:evenodd;fill-rule:evenodd;stroke-linejoin:round;stroke-miterlimit:2"
   >
  <title>Keyoxide</title>

    <defs
   id="defs19"><mask
     maskUnits="userSpaceOnUse"
     id="mask5391"><g
       id="g5411"
       style="clip-rule:evenodd;display:inline;fill-rule:evenodd;stroke-linejoin:round;stroke-miterlimit:2">
        <rect
   id="rect5393"
   x="-2.0001934"
   y="2"
   width="1024"
   height="1024"
   style="clip-rule:evenodd;display:inline;fill:#ffffff;fill-opacity:1;fill-rule:evenodd;stroke-linejoin:round;stroke-miterlimit:2" /><g
   id="g5409"
   style="clip-rule:evenodd;display:inline;fill:#000000;fill-rule:evenodd;stroke-linejoin:round;stroke-miterlimit:2">
            <g
   id="g5397"
   transform="scale(0.264583)"
   style="fill:#000000">
                <path
   d="m 2253.77,664.99 c -104.02,10e-4 -188.34,84.324 -188.34,188.342 0,62.866 31.2,120.27 81.08,154.838 14.37,9.95 22.63,11.1 24.54,26.67 1.92,15.56 -19.41,29.99 -19.41,29.99 l -983.69,765.1 c -88.43,68.8 -140.16,174.56 -140.17,286.6 v 725.67 c 0,200.54 162.56,363.1 363.09,363.1 200.53,0 363.1,-162.56 363.1,-363.1 v -548.09 l 948.32,-737.56 c 139.21,-108.27 179.15,-299.23 99.99,-452.74 -5.91,-11.46 -7.79,-15.53 -20.1,-20.31 -12.3,-4.78 -22.2,0.57 -34.51,5.19 -16.92,6.35 -34.93,9.65 -53.21,9.65 -83.65,0 -151.47,-67.81 -151.47,-151.465 0.01,-11.352 2.02,-18.009 -1.34,-25.073 -3.36,-7.064 -12.29,-11.63 -21.08,-12.633 -14.59,-1.666 -29.27,-2.446 -43.97,-2.333 -14.42,0.109 -25.38,-1.186 -31.6,-11.734 -6.21,-10.549 -2.88,-22.638 -2.88,-41.77 0,-104.021 -84.33,-188.345 -188.35,-188.342 z"
   style="fill:#000000;fill-rule:nonzero"
   id="path5395" />
            </g>
            <path
   d="m 464,508.622 245.251,163.501 c 44.085,29.39 56.016,89.043 26.626,133.128 -29.39,44.085 -89.043,56.016 -133.128,26.626 l -288,-192 C 288.042,622.072 272,592.098 272,560 V 336 c 0,-52.984 43.016,-96 96,-96 52.984,0 96,43.016 96,96 z"
   style="fill:#000000"
   id="path5399" />
            <circle
   id="circle5401"
   cx="503.53201"
   cy="185.784"
   r="33.993"
   style="fill:#000000" />
            <circle
   id="circle5403"
   cx="535.98901"
   cy="119.866"
   r="22.177999"
   style="fill:#000000" />
            <circle
   id="circle5405"
   cx="475.59799"
   cy="103.58"
   r="15.485"
   style="fill:#000000" />
            <circle
   id="circle5407"
   cx="712.90997"
   cy="250.52699"
   r="27.167999"
   style="fill:#000000" />
        </g>
    </g></mask></defs>



    <g
   id="bg_color_circle"
   style="display:inline">
        <g
   id="bg_color_circle_element"
   style="clip-rule:evenodd;display:inline;fill-opacity:1;fill-rule:evenodd;stroke-linejoin:round;stroke-miterlimit:2"
   mask="url(#mask5391)">
            <rect
   id="rect840"
   x="0"
   y="0"
   width="1024"
   height="1023.9998"
   style="display:inline;fill-opacity:1"
   ry="511.99991" />
        </g>
    </g>

</svg>
