<?xml version="1.0" encoding="UTF-8" standalone="no"?>
<!DOCTYPE svg PUBLIC "-//W3C//DTD SVG 1.1//EN"
 "http://www.w3.org/Graphics/SVG/1.1/DTD/svg11.dtd">
<!-- Generated by graphviz version 8.1.0 (0)
 -->
<!-- Pages: 1 -->
<svg width="270pt" height="260pt"
 viewBox="0.00 0.00 269.64 260.00" xmlns="http://www.w3.org/2000/svg" xmlns:xlink="http://www.w3.org/1999/xlink">
<g id="graph0" class="graph" transform="scale(1 1) rotate(0) translate(4 256)">
<polygon fill="white" stroke="none" points="-4,4 -4,-256 265.64,-256 265.64,4 -4,4"/>
<!-- cc0_1_0 -->
<g id="node1" class="node">
<title>cc0_1_0</title>
<ellipse fill="none" stroke="black" cx="123.91" cy="-234" rx="42.65" ry="18"/>
<text text-anchor="middle" x="123.91" y="-228.95" font-family="Times,serif" font-size="14.00">CC0&#45;1.0</text>
</g>
<!-- mit -->
<g id="node2" class="node">
<title>mit</title>
<ellipse fill="none" stroke="black" cx="95.91" cy="-162" rx="28.32" ry="18"/>
<text text-anchor="middle" x="95.91" y="-156.95" font-family="Times,serif" font-size="14.00">MIT</text>
</g>
<!-- cc0_1_0&#45;&gt;mit -->
<g id="edge1" class="edge">
<title>cc0_1_0&#45;&gt;mit</title>
<path fill="none" stroke="black" d="M117.13,-216.05C114,-208.23 110.21,-198.75 106.7,-189.98"/>
<polygon fill="black" stroke="black" points="109.59,-188.77 102.63,-180.79 103.09,-191.37 109.59,-188.77"/>
</g>
<!-- cc_by_sa_4_0 -->
<g id="node5" class="node">
<title>cc_by_sa_4_0</title>
<ellipse fill="none" stroke="black" cx="193.91" cy="-90" rx="67.73" ry="18"/>
<text text-anchor="middle" x="193.91" y="-84.95" font-family="Times,serif" font-size="14.00">CC&#45;BY&#45;SA&#45;4.0</text>
</g>
<!-- cc0_1_0&#45;&gt;cc_by_sa_4_0 -->
<g id="edge4" class="edge">
<title>cc0_1_0&#45;&gt;cc_by_sa_4_0</title>
<path fill="none" stroke="black" d="M132.35,-215.87C144.34,-191.56 166.39,-146.82 180.59,-118.01"/>
<polygon fill="black" stroke="black" points="184.15,-119.71 185.44,-109.19 177.88,-116.61 184.15,-119.71"/>
</g>
<!-- apache_2_0 -->
<g id="node3" class="node">
<title>apache_2_0</title>
<ellipse fill="none" stroke="black" cx="53.91" cy="-90" rx="53.91" ry="18"/>
<text text-anchor="middle" x="53.91" y="-84.95" font-family="Times,serif" font-size="14.00">Apache&#45;2.0</text>
</g>
<!-- mit&#45;&gt;apache_2_0 -->
<g id="edge2" class="edge">
<title>mit&#45;&gt;apache_2_0</title>
<path fill="none" stroke="black" d="M86.17,-144.76C81.28,-136.61 75.23,-126.53 69.69,-117.31"/>
<polygon fill="black" stroke="black" points="72.33,-115.9 64.18,-109.12 66.33,-119.5 72.33,-115.9"/>
</g>
<!-- gpl_3_0_only -->
<g id="node4" class="node">
<title>gpl_3_0_only</title>
<ellipse fill="none" stroke="black" cx="123.91" cy="-18" rx="62.61" ry="18"/>
<text text-anchor="middle" x="123.91" y="-12.95" font-family="Times,serif" font-size="14.00">GPL&#45;3.0&#45;only</text>
</g>
<!-- apache_2_0&#45;&gt;gpl_3_0_only -->
<g id="edge3" class="edge">
<title>apache_2_0&#45;&gt;gpl_3_0_only</title>
<path fill="none" stroke="black" d="M70.5,-72.41C79.22,-63.69 90.07,-52.85 99.7,-43.21"/>
<polygon fill="black" stroke="black" points="101.84,-46.02 106.44,-36.47 96.89,-41.07 101.84,-46.02"/>
</g>
<!-- cc_by_sa_4_0&#45;&gt;gpl_3_0_only -->
<g id="edge5" class="edge">
<title>cc_by_sa_4_0&#45;&gt;gpl_3_0_only</title>
<path fill="none" stroke="black" d="M177.32,-72.41C168.6,-63.69 157.76,-52.85 148.12,-43.21"/>
<polygon fill="black" stroke="black" points="150.93,-41.07 141.38,-36.47 145.98,-46.02 150.93,-41.07"/>
</g>
</g>
</svg>
