<?xml version="1.0" encoding="UTF-8" standalone="no"?>
<!DOCTYPE svg PUBLIC "-//W3C//DTD SVG 1.1//EN"
 "http://www.w3.org/Graphics/SVG/1.1/DTD/svg11.dtd">
<!-- Generated by graphviz version 9.0.0 (0)
 -->
<!-- Pages: 1 -->
<svg width="310pt" height="260pt"
 viewBox="0.00 0.00 309.87 260.00" xmlns="http://www.w3.org/2000/svg" xmlns:xlink="http://www.w3.org/1999/xlink">
<g id="graph0" class="graph" transform="scale(1 1) rotate(0) translate(4 256)">
<polygon fill="white" stroke="none" points="-4,4 -4,-256 305.87,-256 305.87,4 -4,4"/>
<!-- cc0_1_0 -->
<g id="node1" class="node">
<title>cc0_1_0</title>
<ellipse fill="none" stroke="black" cx="145.99" cy="-234" rx="50.68" ry="18"/>
<text text-anchor="middle" x="145.99" y="-229.32" font-family="Times,serif" font-size="14.00">CC0&#45;1.0</text>
</g>
<!-- mit -->
<g id="node2" class="node">
<title>mit</title>
<ellipse fill="none" stroke="black" cx="117.99" cy="-162" rx="28.59" ry="18"/>
<text text-anchor="middle" x="117.99" y="-157.32" font-family="Times,serif" font-size="14.00">MIT</text>
</g>
<!-- cc0_1_0&#45;&gt;mit -->
<g id="edge1" class="edge">
<title>cc0_1_0&#45;&gt;mit</title>
<path fill="none" stroke="black" d="M139.07,-215.7C136.01,-208.04 132.33,-198.85 128.91,-190.3"/>
<polygon fill="black" stroke="black" points="132.17,-189.01 125.2,-181.03 125.67,-191.61 132.17,-189.01"/>
</g>
<!-- cc_by_sa_4_0 -->
<g id="node5" class="node">
<title>cc_by_sa_4_0</title>
<ellipse fill="none" stroke="black" cx="226.99" cy="-90" rx="74.88" ry="18"/>
<text text-anchor="middle" x="226.99" y="-85.33" font-family="Times,serif" font-size="14.00">CC&#45;BY&#45;SA&#45;4.0</text>
</g>
<!-- cc0_1_0&#45;&gt;cc_by_sa_4_0 -->
<g id="edge4" class="edge">
<title>cc0_1_0&#45;&gt;cc_by_sa_4_0</title>
<path fill="none" stroke="black" d="M155.76,-215.87C169.63,-191.56 195.15,-146.82 211.58,-118.01"/>
<polygon fill="black" stroke="black" points="214.52,-119.92 216.44,-109.5 208.44,-116.46 214.52,-119.92"/>
</g>
<!-- apache_2_0 -->
<g id="node3" class="node">
<title>apache_2_0</title>
<ellipse fill="none" stroke="black" cx="66.99" cy="-90" rx="66.99" ry="18"/>
<text text-anchor="middle" x="66.99" y="-85.33" font-family="Times,serif" font-size="14.00">Apache&#45;2.0</text>
</g>
<!-- mit&#45;&gt;apache_2_0 -->
<g id="edge2" class="edge">
<title>mit&#45;&gt;apache_2_0</title>
<path fill="none" stroke="black" d="M106.42,-145.12C100.34,-136.77 92.73,-126.32 85.82,-116.84"/>
<polygon fill="black" stroke="black" points="88.84,-115.04 80.12,-109.02 83.18,-119.16 88.84,-115.04"/>
</g>
<!-- gpl_3_0_only -->
<g id="node4" class="node">
<title>gpl_3_0_only</title>
<ellipse fill="none" stroke="black" cx="146.99" cy="-18" rx="73.3" ry="18"/>
<text text-anchor="middle" x="146.99" y="-13.32" font-family="Times,serif" font-size="14.00">GPL&#45;3.0&#45;only</text>
</g>
<!-- apache_2_0&#45;&gt;gpl_3_0_only -->
<g id="edge3" class="edge">
<title>apache_2_0&#45;&gt;gpl_3_0_only</title>
<path fill="none" stroke="black" d="M85.95,-72.41C95.94,-63.67 108.38,-52.79 119.41,-43.13"/>
<polygon fill="black" stroke="black" points="121.53,-45.93 126.75,-36.71 116.92,-40.66 121.53,-45.93"/>
</g>
<!-- cc_by_sa_4_0&#45;&gt;gpl_3_0_only -->
<g id="edge5" class="edge">
<title>cc_by_sa_4_0&#45;&gt;gpl_3_0_only</title>
<path fill="none" stroke="black" d="M208.03,-72.41C198.04,-63.67 185.61,-52.79 174.57,-43.13"/>
<polygon fill="black" stroke="black" points="177.06,-40.66 167.23,-36.71 172.45,-45.93 177.06,-40.66"/>
</g>
</g>
</svg>
